<?xml version="1.0" encoding="utf-8" standalone="no"?>
<!DOCTYPE svg PUBLIC "-//W3C//DTD SVG 1.1//EN"
  "http://www.w3.org/Graphics/SVG/1.1/DTD/svg11.dtd">
<!-- Created with matplotlib (http://matplotlib.org/) -->
<svg height="491pt" version="1.1" viewBox="0 0 477 491" width="477pt" xmlns="http://www.w3.org/2000/svg" xmlns:xlink="http://www.w3.org/1999/xlink">
 <defs>
  <style type="text/css">
*{stroke-linecap:butt;stroke-linejoin:round;stroke-miterlimit:100000;}
  </style>
 </defs>
 <g id="figure_1">
  <g id="patch_1">
   <path d="M 0 491.81375 
L 477.41375 491.81375 
L 477.41375 0 
L 0 0 
z
" style="fill:#ffffff;"/>
  </g>
  <g id="axes_1">
   <g id="patch_2">
    <path d="M 23.81375 216.654545 
L 226.722841 216.654545 
L 226.722841 7.2 
L 23.81375 7.2 
z
" style="fill:#ffffff;"/>
   </g>
   <g id="PathCollection_1">
    <defs>
     <path d="M 0 3.162278 
C 0.838646 3.162278 1.643056 2.82908 2.236068 2.236068 
C 2.82908 1.643056 3.162278 0.838646 3.162278 0 
C 3.162278 -0.838646 2.82908 -1.643056 2.236068 -2.236068 
C 1.643056 -2.82908 0.838646 -3.162278 0 -3.162278 
C -0.838646 -3.162278 -1.643056 -2.82908 -2.236068 -2.236068 
C -2.82908 -1.643056 -3.162278 -0.838646 -3.162278 0 
C -3.162278 0.838646 -2.82908 1.643056 -2.236068 2.236068 
C -1.643056 2.82908 -0.838646 3.162278 0 3.162278 
z
" id="mce1e87a666" style="stroke:#000000;stroke-opacity:0.5;"/>
    </defs>
    <g clip-path="url(#paaab7e44d3)">
     <use style="fill:#1f77b4;fill-opacity:0.5;stroke:#000000;stroke-opacity:0.5;" x="78.8488089634" xlink:href="#mce1e87a666" y="67.3670772131"/>
     <use style="fill:#1f77b4;fill-opacity:0.5;stroke:#000000;stroke-opacity:0.5;" x="190.898380514" xlink:href="#mce1e87a666" y="80.6084335593"/>
     <use style="fill:#1f77b4;fill-opacity:0.5;stroke:#000000;stroke-opacity:0.5;" x="188.859694622" xlink:href="#mce1e87a666" y="86.0710927942"/>
     <use style="fill:#1f77b4;fill-opacity:0.5;stroke:#000000;stroke-opacity:0.5;" x="202.140166959" xlink:href="#mce1e87a666" y="80.439710976"/>
    </g>
   </g>
   <g id="PathCollection_2">
    <defs>
     <path d="M 0 -3.162278 
L -3.162278 3.162278 
L 3.162278 3.162278 
z
" id="m8531033064" style="stroke:#000000;stroke-opacity:0.5;"/>
    </defs>
    <g clip-path="url(#paaab7e44d3)">
     <use style="fill:#1f77b4;fill-opacity:0.5;stroke:#000000;stroke-opacity:0.5;" x="116.000872171" xlink:href="#m8531033064" y="87.4347095738"/>
     <use style="fill:#1f77b4;fill-opacity:0.5;stroke:#000000;stroke-opacity:0.5;" x="133.380789777" xlink:href="#m8531033064" y="95.2116628364"/>
     <use style="fill:#1f77b4;fill-opacity:0.5;stroke:#000000;stroke-opacity:0.5;" x="108.042102547" xlink:href="#m8531033064" y="84.4161847855"/>
     <use style="fill:#1f77b4;fill-opacity:0.5;stroke:#000000;stroke-opacity:0.5;" x="45.5092291156" xlink:href="#m8531033064" y="47.4430557556"/>
     <use style="fill:#1f77b4;fill-opacity:0.5;stroke:#000000;stroke-opacity:0.5;" x="53.9357065681" xlink:href="#m8531033064" y="65.9665992262"/>
     <use style="fill:#1f77b4;fill-opacity:0.5;stroke:#000000;stroke-opacity:0.5;" x="44.0904116465" xlink:href="#m8531033064" y="55.9713155956"/>
     <use style="fill:#1f77b4;fill-opacity:0.5;stroke:#000000;stroke-opacity:0.5;" x="52.8582650783" xlink:href="#m8531033064" y="53.4768150458"/>
    </g>
   </g>
   <g id="PathCollection_3">
    <defs>
     <path d="M -0 3.162278 
L 3.162278 -3.162278 
L -3.162278 -3.162278 
z
" id="m2f7dad7f75" style="stroke:#000000;stroke-opacity:0.5;"/>
    </defs>
    <g clip-path="url(#paaab7e44d3)">
     <use style="fill:#1f77b4;fill-opacity:0.5;stroke:#000000;stroke-opacity:0.5;" x="136.293427443" xlink:href="#m2f7dad7f75" y="91.2216336873"/>
     <use style="fill:#1f77b4;fill-opacity:0.5;stroke:#000000;stroke-opacity:0.5;" x="50.3798328802" xlink:href="#m2f7dad7f75" y="62.0134367302"/>
     <use style="fill:#1f77b4;fill-opacity:0.5;stroke:#000000;stroke-opacity:0.5;" x="43.4686207821" xlink:href="#m2f7dad7f75" y="48.1805566604"/>
     <use style="fill:#1f77b4;fill-opacity:0.5;stroke:#000000;stroke-opacity:0.5;" x="49.4386544223" xlink:href="#m2f7dad7f75" y="63.48796032"/>
     <use style="fill:#1f77b4;fill-opacity:0.5;stroke:#000000;stroke-opacity:0.5;" x="52.9143252484" xlink:href="#m2f7dad7f75" y="58.9338179607"/>
     <use style="fill:#1f77b4;fill-opacity:0.5;stroke:#000000;stroke-opacity:0.5;" x="146.183636231" xlink:href="#m2f7dad7f75" y="88.7069831564"/>
     <use style="fill:#1f77b4;fill-opacity:0.5;stroke:#000000;stroke-opacity:0.5;" x="156.899688448" xlink:href="#m2f7dad7f75" y="89.2192481629"/>
    </g>
   </g>
   <g id="PathCollection_4">
    <defs>
     <path d="M -3.162278 3.162278 
L 3.162278 3.162278 
L 3.162278 -3.162278 
L -3.162278 -3.162278 
z
" id="m2b17243e73" style="stroke:#000000;stroke-opacity:0.5;"/>
    </defs>
    <g clip-path="url(#paaab7e44d3)">
     <use style="fill:#1f77b4;fill-opacity:0.5;stroke:#000000;stroke-opacity:0.5;" x="43.6482238972" xlink:href="#m2b17243e73" y="153.171737228"/>
     <use style="fill:#1f77b4;fill-opacity:0.5;stroke:#000000;stroke-opacity:0.5;" x="42.4673248651" xlink:href="#m2b17243e73" y="141.041196393"/>
     <use style="fill:#1f77b4;fill-opacity:0.5;stroke:#000000;stroke-opacity:0.5;" x="44.7774615239" xlink:href="#m2b17243e73" y="130.629538071"/>
     <use style="fill:#1f77b4;fill-opacity:0.5;stroke:#000000;stroke-opacity:0.5;" x="45.6145953628" xlink:href="#m2b17243e73" y="178.319538921"/>
     <use style="fill:#1f77b4;fill-opacity:0.5;stroke:#000000;stroke-opacity:0.5;" x="158.525492365" xlink:href="#m2b17243e73" y="91.7666550109"/>
     <use style="fill:#1f77b4;fill-opacity:0.5;stroke:#000000;stroke-opacity:0.5;" x="166.987616988" xlink:href="#m2b17243e73" y="92.4161624902"/>
     <use style="fill:#1f77b4;fill-opacity:0.5;stroke:#000000;stroke-opacity:0.5;" x="171.549044701" xlink:href="#m2b17243e73" y="92.8860273338"/>
     <use style="fill:#1f77b4;fill-opacity:0.5;stroke:#000000;stroke-opacity:0.5;" x="175.472558698" xlink:href="#m2b17243e73" y="93.3260145687"/>
    </g>
   </g>
   <g id="PathCollection_5">
    <defs>
     <path d="M -0 4.472136 
L 4.472136 0 
L 0 -4.472136 
L -4.472136 -0 
z
" id="mde0509cf8d" style="stroke:#000000;stroke-opacity:0.5;"/>
    </defs>
    <g clip-path="url(#paaab7e44d3)">
     <use style="fill:#1f77b4;fill-opacity:0.5;stroke:#000000;stroke-opacity:0.5;" x="47.8594839047" xlink:href="#mde0509cf8d" y="183.511885684"/>
     <use style="fill:#1f77b4;fill-opacity:0.5;stroke:#000000;stroke-opacity:0.5;" x="43.7690854797" xlink:href="#mde0509cf8d" y="164.679689577"/>
     <use style="fill:#1f77b4;fill-opacity:0.5;stroke:#000000;stroke-opacity:0.5;" x="43.7583813759" xlink:href="#mde0509cf8d" y="177.845200617"/>
     <use style="fill:#1f77b4;fill-opacity:0.5;stroke:#000000;stroke-opacity:0.5;" x="46.1334562891" xlink:href="#mde0509cf8d" y="179.040002444"/>
     <use style="fill:#1f77b4;fill-opacity:0.5;stroke:#000000;stroke-opacity:0.5;" x="183.951384565" xlink:href="#mde0509cf8d" y="86.1269217513"/>
     <use style="fill:#1f77b4;fill-opacity:0.5;stroke:#000000;stroke-opacity:0.5;" x="180.865684336" xlink:href="#mde0509cf8d" y="89.7909931636"/>
     <use style="fill:#1f77b4;fill-opacity:0.5;stroke:#000000;stroke-opacity:0.5;" x="163.024504836" xlink:href="#mde0509cf8d" y="90.3304863185"/>
    </g>
   </g>
   <g id="PathCollection_6">
    <defs>
     <path d="M 0 3.162278 
C 0.838646 3.162278 1.643056 2.82908 2.236068 2.236068 
C 2.82908 1.643056 3.162278 0.838646 3.162278 0 
C 3.162278 -0.838646 2.82908 -1.643056 2.236068 -2.236068 
C 1.643056 -2.82908 0.838646 -3.162278 0 -3.162278 
C -0.838646 -3.162278 -1.643056 -2.82908 -2.236068 -2.236068 
C -2.82908 -1.643056 -3.162278 -0.838646 -3.162278 0 
C -3.162278 0.838646 -2.82908 1.643056 -2.236068 2.236068 
C -1.643056 2.82908 -0.838646 3.162278 0 3.162278 
z
" id="m90636d2aff" style="stroke:#000000;stroke-opacity:0.5;"/>
    </defs>
    <g clip-path="url(#paaab7e44d3)">
     <use style="fill:#d62728;fill-opacity:0.5;stroke:#000000;stroke-opacity:0.5;" x="191.371991089" xlink:href="#m90636d2aff" y="70.1967169745"/>
     <use style="fill:#d62728;fill-opacity:0.5;stroke:#000000;stroke-opacity:0.5;" x="172.943014958" xlink:href="#m90636d2aff" y="88.7734703127"/>
     <use style="fill:#d62728;fill-opacity:0.5;stroke:#000000;stroke-opacity:0.5;" x="198.995484871" xlink:href="#m90636d2aff" y="78.8996186182"/>
     <use style="fill:#d62728;fill-opacity:0.5;stroke:#000000;stroke-opacity:0.5;" x="184.26949373" xlink:href="#m90636d2aff" y="78.4363333702"/>
     <use style="fill:#d62728;fill-opacity:0.5;stroke:#000000;stroke-opacity:0.5;" x="187.971097701" xlink:href="#m90636d2aff" y="82.6471965207"/>
     <use style="fill:#d62728;fill-opacity:0.5;stroke:#000000;stroke-opacity:0.5;" x="186.211896133" xlink:href="#m90636d2aff" y="87.605797248"/>
     <use style="fill:#d62728;fill-opacity:0.5;stroke:#000000;stroke-opacity:0.5;" x="195.125180862" xlink:href="#m90636d2aff" y="80.7129340276"/>
    </g>
   </g>
   <g id="PathCollection_7">
    <defs>
     <path d="M 0 -3.162278 
L -3.162278 3.162278 
L 3.162278 3.162278 
z
" id="m7b274d6b15" style="stroke:#000000;stroke-opacity:0.5;"/>
    </defs>
    <g clip-path="url(#paaab7e44d3)">
     <use style="fill:#d62728;fill-opacity:0.5;stroke:#000000;stroke-opacity:0.5;" x="184.962941068" xlink:href="#m7b274d6b15" y="96.9614870575"/>
     <use style="fill:#d62728;fill-opacity:0.5;stroke:#000000;stroke-opacity:0.5;" x="180.56318655" xlink:href="#m7b274d6b15" y="99.0346565935"/>
     <use style="fill:#d62728;fill-opacity:0.5;stroke:#000000;stroke-opacity:0.5;" x="183.682823934" xlink:href="#m7b274d6b15" y="97.2774415593"/>
     <use style="fill:#d62728;fill-opacity:0.5;stroke:#000000;stroke-opacity:0.5;" x="188.763902478" xlink:href="#m7b274d6b15" y="102.620085818"/>
     <use style="fill:#d62728;fill-opacity:0.5;stroke:#000000;stroke-opacity:0.5;" x="174.370947347" xlink:href="#m7b274d6b15" y="99.2414453062"/>
     <use style="fill:#d62728;fill-opacity:0.5;stroke:#000000;stroke-opacity:0.5;" x="181.537831839" xlink:href="#m7b274d6b15" y="101.346845149"/>
     <use style="fill:#d62728;fill-opacity:0.5;stroke:#000000;stroke-opacity:0.5;" x="178.894546495" xlink:href="#m7b274d6b15" y="102.576376844"/>
     <use style="fill:#d62728;fill-opacity:0.5;stroke:#000000;stroke-opacity:0.5;" x="181.911338513" xlink:href="#m7b274d6b15" y="100.252382348"/>
    </g>
   </g>
   <g id="PathCollection_8">
    <defs>
     <path d="M -0 3.162278 
L 3.162278 -3.162278 
L -3.162278 -3.162278 
z
" id="m4ac8fe62c2" style="stroke:#000000;stroke-opacity:0.5;"/>
    </defs>
    <g clip-path="url(#paaab7e44d3)">
     <use style="fill:#d62728;fill-opacity:0.5;stroke:#000000;stroke-opacity:0.5;" x="172.493063866" xlink:href="#m4ac8fe62c2" y="105.149570828"/>
     <use style="fill:#d62728;fill-opacity:0.5;stroke:#000000;stroke-opacity:0.5;" x="162.472062151" xlink:href="#m4ac8fe62c2" y="99.3967692916"/>
     <use style="fill:#d62728;fill-opacity:0.5;stroke:#000000;stroke-opacity:0.5;" x="163.446887359" xlink:href="#m4ac8fe62c2" y="99.8289296291"/>
     <use style="fill:#d62728;fill-opacity:0.5;stroke:#000000;stroke-opacity:0.5;" x="118.956038811" xlink:href="#m4ac8fe62c2" y="91.9724513629"/>
     <use style="fill:#d62728;fill-opacity:0.5;stroke:#000000;stroke-opacity:0.5;" x="171.425477001" xlink:href="#m4ac8fe62c2" y="101.942224512"/>
     <use style="fill:#d62728;fill-opacity:0.5;stroke:#000000;stroke-opacity:0.5;" x="182.217893466" xlink:href="#m4ac8fe62c2" y="102.707623226"/>
    </g>
   </g>
   <g id="PathCollection_9">
    <defs>
     <path d="M -3.162278 3.162278 
L 3.162278 3.162278 
L 3.162278 -3.162278 
L -3.162278 -3.162278 
z
" id="m9f735e40ff" style="stroke:#000000;stroke-opacity:0.5;"/>
    </defs>
    <g clip-path="url(#paaab7e44d3)">
     <use style="fill:#d62728;fill-opacity:0.5;stroke:#000000;stroke-opacity:0.5;" x="170.507396558" xlink:href="#m9f735e40ff" y="177.003440849"/>
     <use style="fill:#d62728;fill-opacity:0.5;stroke:#000000;stroke-opacity:0.5;" x="168.757464263" xlink:href="#m9f735e40ff" y="161.089938991"/>
     <use style="fill:#d62728;fill-opacity:0.5;stroke:#000000;stroke-opacity:0.5;" x="176.604287825" xlink:href="#m9f735e40ff" y="179.238675735"/>
     <use style="fill:#d62728;fill-opacity:0.5;stroke:#000000;stroke-opacity:0.5;" x="167.091175112" xlink:href="#m9f735e40ff" y="182.069217199"/>
     <use style="fill:#d62728;fill-opacity:0.5;stroke:#000000;stroke-opacity:0.5;" x="173.551050737" xlink:href="#m9f735e40ff" y="188.501739753"/>
     <use style="fill:#d62728;fill-opacity:0.5;stroke:#000000;stroke-opacity:0.5;" x="178.779047211" xlink:href="#m9f735e40ff" y="181.82871353"/>
     <use style="fill:#d62728;fill-opacity:0.5;stroke:#000000;stroke-opacity:0.5;" x="167.490016813" xlink:href="#m9f735e40ff" y="179.462649251"/>
     <use style="fill:#d62728;fill-opacity:0.5;stroke:#000000;stroke-opacity:0.5;" x="169.037881562" xlink:href="#m9f735e40ff" y="172.107303308"/>
    </g>
   </g>
   <g id="PathCollection_10">
    <defs>
     <path d="M -0 4.472136 
L 4.472136 0 
L 0 -4.472136 
L -4.472136 -0 
z
" id="m8602cf3905" style="stroke:#000000;stroke-opacity:0.5;"/>
    </defs>
    <g clip-path="url(#paaab7e44d3)">
     <use style="fill:#d62728;fill-opacity:0.5;stroke:#000000;stroke-opacity:0.5;" x="174.050023143" xlink:href="#m8602cf3905" y="185.00832377"/>
     <use style="fill:#d62728;fill-opacity:0.5;stroke:#000000;stroke-opacity:0.5;" x="165.309476466" xlink:href="#m8602cf3905" y="194.574419049"/>
     <use style="fill:#d62728;fill-opacity:0.5;stroke:#000000;stroke-opacity:0.5;" x="166.422564193" xlink:href="#m8602cf3905" y="184.543271738"/>
     <use style="fill:#d62728;fill-opacity:0.5;stroke:#000000;stroke-opacity:0.5;" x="180.46392882" xlink:href="#m8602cf3905" y="192.391179334"/>
     <use style="fill:#d62728;fill-opacity:0.5;stroke:#000000;stroke-opacity:0.5;" x="161.102749589" xlink:href="#m8602cf3905" y="191.049381085"/>
     <use style="fill:#d62728;fill-opacity:0.5;stroke:#000000;stroke-opacity:0.5;" x="164.483233001" xlink:href="#m8602cf3905" y="176.282022737"/>
     <use style="fill:#d62728;fill-opacity:0.5;stroke:#000000;stroke-opacity:0.5;" x="175.629102696" xlink:href="#m8602cf3905" y="174.116772201"/>
    </g>
   </g>
   <g id="patch_3">
    <path d="M 23.81375 7.2 
L 226.722841 7.2 
" style="fill:none;stroke:#000000;stroke-linecap:square;stroke-linejoin:miter;"/>
   </g>
   <g id="patch_4">
    <path d="M 226.722841 216.654545 
L 226.722841 7.2 
" style="fill:none;stroke:#000000;stroke-linecap:square;stroke-linejoin:miter;"/>
   </g>
   <g id="patch_5">
    <path d="M 23.81375 216.654545 
L 226.722841 216.654545 
" style="fill:none;stroke:#000000;stroke-linecap:square;stroke-linejoin:miter;"/>
   </g>
   <g id="patch_6">
    <path d="M 23.81375 216.654545 
L 23.81375 7.2 
" style="fill:none;stroke:#000000;stroke-linecap:square;stroke-linejoin:miter;"/>
   </g>
   <g id="matplotlib.axis_1">
    <g id="text_1">
     <!-- PC1 (59.79%) -->
     <defs>
      <path d="M 8.015625 75.875 
L 15.828125 75.875 
Q 23.140625 64.359375 26.78125 53.3125 
Q 30.421875 42.28125 30.421875 31.390625 
Q 30.421875 20.453125 26.78125 9.375 
Q 23.140625 -1.703125 15.828125 -13.1875 
L 8.015625 -13.1875 
Q 14.5 -2 17.703125 9.0625 
Q 20.90625 20.125 20.90625 31.390625 
Q 20.90625 42.671875 17.703125 53.65625 
Q 14.5 64.65625 8.015625 75.875 
" id="DejaVuSans-29"/>
      <path d="M 10.6875 12.40625 
L 21 12.40625 
L 21 0 
L 10.6875 0 
z
" id="DejaVuSans-2e"/>
      <path d="M 72.703125 32.078125 
Q 68.453125 32.078125 66.03125 28.46875 
Q 63.625 24.859375 63.625 18.40625 
Q 63.625 12.0625 66.03125 8.421875 
Q 68.453125 4.78125 72.703125 4.78125 
Q 76.859375 4.78125 79.265625 8.421875 
Q 81.6875 12.0625 81.6875 18.40625 
Q 81.6875 24.8125 79.265625 28.4375 
Q 76.859375 32.078125 72.703125 32.078125 
M 72.703125 38.28125 
Q 80.421875 38.28125 84.953125 32.90625 
Q 89.5 27.546875 89.5 18.40625 
Q 89.5 9.28125 84.9375 3.921875 
Q 80.375 -1.421875 72.703125 -1.421875 
Q 64.890625 -1.421875 60.34375 3.921875 
Q 55.8125 9.28125 55.8125 18.40625 
Q 55.8125 27.59375 60.375 32.9375 
Q 64.9375 38.28125 72.703125 38.28125 
M 22.3125 68.015625 
Q 18.109375 68.015625 15.6875 64.375 
Q 13.28125 60.75 13.28125 54.390625 
Q 13.28125 47.953125 15.671875 44.328125 
Q 18.0625 40.71875 22.3125 40.71875 
Q 26.5625 40.71875 28.96875 44.328125 
Q 31.390625 47.953125 31.390625 54.390625 
Q 31.390625 60.6875 28.953125 64.34375 
Q 26.515625 68.015625 22.3125 68.015625 
M 66.40625 74.21875 
L 74.21875 74.21875 
L 28.609375 -1.421875 
L 20.796875 -1.421875 
z
M 22.3125 74.21875 
Q 30.03125 74.21875 34.609375 68.875 
Q 39.203125 63.53125 39.203125 54.390625 
Q 39.203125 45.171875 34.640625 39.84375 
Q 30.078125 34.515625 22.3125 34.515625 
Q 14.546875 34.515625 10.03125 39.859375 
Q 5.515625 45.21875 5.515625 54.390625 
Q 5.515625 63.484375 10.046875 68.84375 
Q 14.59375 74.21875 22.3125 74.21875 
" id="DejaVuSans-25"/>
      <path d="M 12.40625 8.296875 
L 28.515625 8.296875 
L 28.515625 63.921875 
L 10.984375 60.40625 
L 10.984375 69.390625 
L 28.421875 72.90625 
L 38.28125 72.90625 
L 38.28125 8.296875 
L 54.390625 8.296875 
L 54.390625 0 
L 12.40625 0 
z
" id="DejaVuSans-31"/>
      <path id="DejaVuSans-20"/>
      <path d="M 10.796875 72.90625 
L 49.515625 72.90625 
L 49.515625 64.59375 
L 19.828125 64.59375 
L 19.828125 46.734375 
Q 21.96875 47.46875 24.109375 47.828125 
Q 26.265625 48.1875 28.421875 48.1875 
Q 40.625 48.1875 47.75 41.5 
Q 54.890625 34.8125 54.890625 23.390625 
Q 54.890625 11.625 47.5625 5.09375 
Q 40.234375 -1.421875 26.90625 -1.421875 
Q 22.3125 -1.421875 17.546875 -0.640625 
Q 12.796875 0.140625 7.71875 1.703125 
L 7.71875 11.625 
Q 12.109375 9.234375 16.796875 8.0625 
Q 21.484375 6.890625 26.703125 6.890625 
Q 35.15625 6.890625 40.078125 11.328125 
Q 45.015625 15.765625 45.015625 23.390625 
Q 45.015625 31 40.078125 35.4375 
Q 35.15625 39.890625 26.703125 39.890625 
Q 22.75 39.890625 18.8125 39.015625 
Q 14.890625 38.140625 10.796875 36.28125 
z
" id="DejaVuSans-35"/>
      <path d="M 8.203125 72.90625 
L 55.078125 72.90625 
L 55.078125 68.703125 
L 28.609375 0 
L 18.3125 0 
L 43.21875 64.59375 
L 8.203125 64.59375 
z
" id="DejaVuSans-37"/>
      <path d="M 64.40625 67.28125 
L 64.40625 56.890625 
Q 59.421875 61.53125 53.78125 63.8125 
Q 48.140625 66.109375 41.796875 66.109375 
Q 29.296875 66.109375 22.65625 58.46875 
Q 16.015625 50.828125 16.015625 36.375 
Q 16.015625 21.96875 22.65625 14.328125 
Q 29.296875 6.6875 41.796875 6.6875 
Q 48.140625 6.6875 53.78125 8.984375 
Q 59.421875 11.28125 64.40625 15.921875 
L 64.40625 5.609375 
Q 59.234375 2.09375 53.4375 0.328125 
Q 47.65625 -1.421875 41.21875 -1.421875 
Q 24.65625 -1.421875 15.125 8.703125 
Q 5.609375 18.84375 5.609375 36.375 
Q 5.609375 53.953125 15.125 64.078125 
Q 24.65625 74.21875 41.21875 74.21875 
Q 47.75 74.21875 53.53125 72.484375 
Q 59.328125 70.75 64.40625 67.28125 
" id="DejaVuSans-43"/>
      <path d="M 10.984375 1.515625 
L 10.984375 10.5 
Q 14.703125 8.734375 18.5 7.8125 
Q 22.3125 6.890625 25.984375 6.890625 
Q 35.75 6.890625 40.890625 13.453125 
Q 46.046875 20.015625 46.78125 33.40625 
Q 43.953125 29.203125 39.59375 26.953125 
Q 35.25 24.703125 29.984375 24.703125 
Q 19.046875 24.703125 12.671875 31.3125 
Q 6.296875 37.9375 6.296875 49.421875 
Q 6.296875 60.640625 12.9375 67.421875 
Q 19.578125 74.21875 30.609375 74.21875 
Q 43.265625 74.21875 49.921875 64.515625 
Q 56.59375 54.828125 56.59375 36.375 
Q 56.59375 19.140625 48.40625 8.859375 
Q 40.234375 -1.421875 26.421875 -1.421875 
Q 22.703125 -1.421875 18.890625 -0.6875 
Q 15.09375 0.046875 10.984375 1.515625 
M 30.609375 32.421875 
Q 37.25 32.421875 41.125 36.953125 
Q 45.015625 41.5 45.015625 49.421875 
Q 45.015625 57.28125 41.125 61.84375 
Q 37.25 66.40625 30.609375 66.40625 
Q 23.96875 66.40625 20.09375 61.84375 
Q 16.21875 57.28125 16.21875 49.421875 
Q 16.21875 41.5 20.09375 36.953125 
Q 23.96875 32.421875 30.609375 32.421875 
" id="DejaVuSans-39"/>
      <path d="M 31 75.875 
Q 24.46875 64.65625 21.28125 53.65625 
Q 18.109375 42.671875 18.109375 31.390625 
Q 18.109375 20.125 21.3125 9.0625 
Q 24.515625 -2 31 -13.1875 
L 23.1875 -13.1875 
Q 15.875 -1.703125 12.234375 9.375 
Q 8.59375 20.453125 8.59375 31.390625 
Q 8.59375 42.28125 12.203125 53.3125 
Q 15.828125 64.359375 23.1875 75.875 
z
" id="DejaVuSans-28"/>
      <path d="M 19.671875 64.796875 
L 19.671875 37.40625 
L 32.078125 37.40625 
Q 38.96875 37.40625 42.71875 40.96875 
Q 46.484375 44.53125 46.484375 51.125 
Q 46.484375 57.671875 42.71875 61.234375 
Q 38.96875 64.796875 32.078125 64.796875 
z
M 9.8125 72.90625 
L 32.078125 72.90625 
Q 44.34375 72.90625 50.609375 67.359375 
Q 56.890625 61.8125 56.890625 51.125 
Q 56.890625 40.328125 50.609375 34.8125 
Q 44.34375 29.296875 32.078125 29.296875 
L 19.671875 29.296875 
L 19.671875 0 
L 9.8125 0 
z
" id="DejaVuSans-50"/>
     </defs>
     <g transform="translate(84.1767329545 230.772670455)scale(0.12 -0.12)">
      <use xlink:href="#DejaVuSans-50"/>
      <use x="60.302734375" xlink:href="#DejaVuSans-43"/>
      <use x="130.126953125" xlink:href="#DejaVuSans-31"/>
      <use x="193.75" xlink:href="#DejaVuSans-20"/>
      <use x="225.537109375" xlink:href="#DejaVuSans-28"/>
      <use x="264.55078125" xlink:href="#DejaVuSans-35"/>
      <use x="328.173828125" xlink:href="#DejaVuSans-39"/>
      <use x="391.796875" xlink:href="#DejaVuSans-2e"/>
      <use x="423.583984375" xlink:href="#DejaVuSans-37"/>
      <use x="487.20703125" xlink:href="#DejaVuSans-39"/>
      <use x="550.830078125" xlink:href="#DejaVuSans-25"/>
      <use x="645.849609375" xlink:href="#DejaVuSans-29"/>
     </g>
    </g>
   </g>
   <g id="matplotlib.axis_2">
    <g id="text_2">
     <!-- PC2 (13.06%) -->
     <defs>
      <path d="M 31.78125 66.40625 
Q 24.171875 66.40625 20.328125 58.90625 
Q 16.5 51.421875 16.5 36.375 
Q 16.5 21.390625 20.328125 13.890625 
Q 24.171875 6.390625 31.78125 6.390625 
Q 39.453125 6.390625 43.28125 13.890625 
Q 47.125 21.390625 47.125 36.375 
Q 47.125 51.421875 43.28125 58.90625 
Q 39.453125 66.40625 31.78125 66.40625 
M 31.78125 74.21875 
Q 44.046875 74.21875 50.515625 64.515625 
Q 56.984375 54.828125 56.984375 36.375 
Q 56.984375 17.96875 50.515625 8.265625 
Q 44.046875 -1.421875 31.78125 -1.421875 
Q 19.53125 -1.421875 13.0625 8.265625 
Q 6.59375 17.96875 6.59375 36.375 
Q 6.59375 54.828125 13.0625 64.515625 
Q 19.53125 74.21875 31.78125 74.21875 
" id="DejaVuSans-30"/>
      <path d="M 40.578125 39.3125 
Q 47.65625 37.796875 51.625 33 
Q 55.609375 28.21875 55.609375 21.1875 
Q 55.609375 10.40625 48.1875 4.484375 
Q 40.765625 -1.421875 27.09375 -1.421875 
Q 22.515625 -1.421875 17.65625 -0.515625 
Q 12.796875 0.390625 7.625 2.203125 
L 7.625 11.71875 
Q 11.71875 9.328125 16.59375 8.109375 
Q 21.484375 6.890625 26.8125 6.890625 
Q 36.078125 6.890625 40.9375 10.546875 
Q 45.796875 14.203125 45.796875 21.1875 
Q 45.796875 27.640625 41.28125 31.265625 
Q 36.765625 34.90625 28.71875 34.90625 
L 20.21875 34.90625 
L 20.21875 43.015625 
L 29.109375 43.015625 
Q 36.375 43.015625 40.234375 45.921875 
Q 44.09375 48.828125 44.09375 54.296875 
Q 44.09375 59.90625 40.109375 62.90625 
Q 36.140625 65.921875 28.71875 65.921875 
Q 24.65625 65.921875 20.015625 65.03125 
Q 15.375 64.15625 9.8125 62.3125 
L 9.8125 71.09375 
Q 15.4375 72.65625 20.34375 73.4375 
Q 25.25 74.21875 29.59375 74.21875 
Q 40.828125 74.21875 47.359375 69.109375 
Q 53.90625 64.015625 53.90625 55.328125 
Q 53.90625 49.265625 50.4375 45.09375 
Q 46.96875 40.921875 40.578125 39.3125 
" id="DejaVuSans-33"/>
      <path d="M 19.1875 8.296875 
L 53.609375 8.296875 
L 53.609375 0 
L 7.328125 0 
L 7.328125 8.296875 
Q 12.9375 14.109375 22.625 23.890625 
Q 32.328125 33.6875 34.8125 36.53125 
Q 39.546875 41.84375 41.421875 45.53125 
Q 43.3125 49.21875 43.3125 52.78125 
Q 43.3125 58.59375 39.234375 62.25 
Q 35.15625 65.921875 28.609375 65.921875 
Q 23.96875 65.921875 18.8125 64.3125 
Q 13.671875 62.703125 7.8125 59.421875 
L 7.8125 69.390625 
Q 13.765625 71.78125 18.9375 73 
Q 24.125 74.21875 28.421875 74.21875 
Q 39.75 74.21875 46.484375 68.546875 
Q 53.21875 62.890625 53.21875 53.421875 
Q 53.21875 48.921875 51.53125 44.890625 
Q 49.859375 40.875 45.40625 35.40625 
Q 44.1875 33.984375 37.640625 27.21875 
Q 31.109375 20.453125 19.1875 8.296875 
" id="DejaVuSans-32"/>
      <path d="M 33.015625 40.375 
Q 26.375 40.375 22.484375 35.828125 
Q 18.609375 31.296875 18.609375 23.390625 
Q 18.609375 15.53125 22.484375 10.953125 
Q 26.375 6.390625 33.015625 6.390625 
Q 39.65625 6.390625 43.53125 10.953125 
Q 47.40625 15.53125 47.40625 23.390625 
Q 47.40625 31.296875 43.53125 35.828125 
Q 39.65625 40.375 33.015625 40.375 
M 52.59375 71.296875 
L 52.59375 62.3125 
Q 48.875 64.0625 45.09375 64.984375 
Q 41.3125 65.921875 37.59375 65.921875 
Q 27.828125 65.921875 22.671875 59.328125 
Q 17.53125 52.734375 16.796875 39.40625 
Q 19.671875 43.65625 24.015625 45.921875 
Q 28.375 48.1875 33.59375 48.1875 
Q 44.578125 48.1875 50.953125 41.515625 
Q 57.328125 34.859375 57.328125 23.390625 
Q 57.328125 12.15625 50.6875 5.359375 
Q 44.046875 -1.421875 33.015625 -1.421875 
Q 20.359375 -1.421875 13.671875 8.265625 
Q 6.984375 17.96875 6.984375 36.375 
Q 6.984375 53.65625 15.1875 63.9375 
Q 23.390625 74.21875 37.203125 74.21875 
Q 40.921875 74.21875 44.703125 73.484375 
Q 48.484375 72.75 52.59375 71.296875 
" id="DejaVuSans-36"/>
     </defs>
     <g transform="translate(16.318125 153.018835227)rotate(-90.0)scale(0.12 -0.12)">
      <use xlink:href="#DejaVuSans-50"/>
      <use x="60.302734375" xlink:href="#DejaVuSans-43"/>
      <use x="130.126953125" xlink:href="#DejaVuSans-32"/>
      <use x="193.75" xlink:href="#DejaVuSans-20"/>
      <use x="225.537109375" xlink:href="#DejaVuSans-28"/>
      <use x="264.55078125" xlink:href="#DejaVuSans-31"/>
      <use x="328.173828125" xlink:href="#DejaVuSans-33"/>
      <use x="391.796875" xlink:href="#DejaVuSans-2e"/>
      <use x="423.583984375" xlink:href="#DejaVuSans-30"/>
      <use x="487.20703125" xlink:href="#DejaVuSans-36"/>
      <use x="550.830078125" xlink:href="#DejaVuSans-25"/>
      <use x="645.849609375" xlink:href="#DejaVuSans-29"/>
     </g>
    </g>
   </g>
   <g id="legend_1">
    <g id="patch_7">
     <path d="M 233.922841 230.085 
L 416.985091 230.085 
L 416.985091 14.4 
L 233.922841 14.4 
z
" style="fill:#ffffff;stroke:#000000;stroke-linejoin:miter;"/>
    </g>
    <g id="PathCollection_11">
     <path d="M 254.082841 30.484028 
C 254.921487 30.484028 255.725897 30.15083 256.318909 29.557818 
C 256.911921 28.964806 257.245119 28.160396 257.245119 27.32175 
C 257.245119 26.483104 256.911921 25.678694 256.318909 25.085682 
C 255.725897 24.49267 254.921487 24.159472 254.082841 24.159472 
C 253.244195 24.159472 252.439785 24.49267 251.846773 25.085682 
C 251.253761 25.678694 250.920563 26.483104 250.920563 27.32175 
C 250.920563 28.160396 251.253761 28.964806 251.846773 29.557818 
C 252.439785 30.15083 253.244195 30.484028 254.082841 30.484028 
z
" style="fill:#1f77b4;fill-opacity:0.5;stroke:#000000;stroke-opacity:0.5;"/>
     <path d="M 254.082841 30.484028 
C 254.921487 30.484028 255.725897 30.15083 256.318909 29.557818 
C 256.911921 28.964806 257.245119 28.160396 257.245119 27.32175 
C 257.245119 26.483104 256.911921 25.678694 256.318909 25.085682 
C 255.725897 24.49267 254.921487 24.159472 254.082841 24.159472 
C 253.244195 24.159472 252.439785 24.49267 251.846773 25.085682 
C 251.253761 25.678694 250.920563 26.483104 250.920563 27.32175 
C 250.920563 28.160396 251.253761 28.964806 251.846773 29.557818 
C 252.439785 30.15083 253.244195 30.484028 254.082841 30.484028 
z
" style="fill:#1f77b4;fill-opacity:0.5;stroke:#000000;stroke-opacity:0.5;"/>
     <path d="M 254.082841 30.484028 
C 254.921487 30.484028 255.725897 30.15083 256.318909 29.557818 
C 256.911921 28.964806 257.245119 28.160396 257.245119 27.32175 
C 257.245119 26.483104 256.911921 25.678694 256.318909 25.085682 
C 255.725897 24.49267 254.921487 24.159472 254.082841 24.159472 
C 253.244195 24.159472 252.439785 24.49267 251.846773 25.085682 
C 251.253761 25.678694 250.920563 26.483104 250.920563 27.32175 
C 250.920563 28.160396 251.253761 28.964806 251.846773 29.557818 
C 252.439785 30.15083 253.244195 30.484028 254.082841 30.484028 
z
" style="fill:#1f77b4;fill-opacity:0.5;stroke:#000000;stroke-opacity:0.5;"/>
    </g>
    <g id="text_3">
     <!-- Weaned, dN (0d) -->
     <defs>
      <path d="M 11.71875 12.40625 
L 22.015625 12.40625 
L 22.015625 4 
L 14.015625 -11.625 
L 7.71875 -11.625 
L 11.71875 4 
z
" id="DejaVuSans-2c"/>
      <path d="M 9.8125 72.90625 
L 23.09375 72.90625 
L 55.421875 11.921875 
L 55.421875 72.90625 
L 64.984375 72.90625 
L 64.984375 0 
L 51.703125 0 
L 19.390625 60.984375 
L 19.390625 0 
L 9.8125 0 
z
" id="DejaVuSans-4e"/>
      <path d="M 54.890625 33.015625 
L 54.890625 0 
L 45.90625 0 
L 45.90625 32.71875 
Q 45.90625 40.484375 42.875 44.328125 
Q 39.84375 48.1875 33.796875 48.1875 
Q 26.515625 48.1875 22.3125 43.546875 
Q 18.109375 38.921875 18.109375 30.90625 
L 18.109375 0 
L 9.078125 0 
L 9.078125 54.6875 
L 18.109375 54.6875 
L 18.109375 46.1875 
Q 21.34375 51.125 25.703125 53.5625 
Q 30.078125 56 35.796875 56 
Q 45.21875 56 50.046875 50.171875 
Q 54.890625 44.34375 54.890625 33.015625 
" id="DejaVuSans-6e"/>
      <path d="M 45.40625 46.390625 
L 45.40625 75.984375 
L 54.390625 75.984375 
L 54.390625 0 
L 45.40625 0 
L 45.40625 8.203125 
Q 42.578125 3.328125 38.25 0.953125 
Q 33.9375 -1.421875 27.875 -1.421875 
Q 17.96875 -1.421875 11.734375 6.484375 
Q 5.515625 14.40625 5.515625 27.296875 
Q 5.515625 40.1875 11.734375 48.09375 
Q 17.96875 56 27.875 56 
Q 33.9375 56 38.25 53.625 
Q 42.578125 51.265625 45.40625 46.390625 
M 14.796875 27.296875 
Q 14.796875 17.390625 18.875 11.75 
Q 22.953125 6.109375 30.078125 6.109375 
Q 37.203125 6.109375 41.296875 11.75 
Q 45.40625 17.390625 45.40625 27.296875 
Q 45.40625 37.203125 41.296875 42.84375 
Q 37.203125 48.484375 30.078125 48.484375 
Q 22.953125 48.484375 18.875 42.84375 
Q 14.796875 37.203125 14.796875 27.296875 
" id="DejaVuSans-64"/>
      <path d="M 56.203125 29.59375 
L 56.203125 25.203125 
L 14.890625 25.203125 
Q 15.484375 15.921875 20.484375 11.0625 
Q 25.484375 6.203125 34.421875 6.203125 
Q 39.59375 6.203125 44.453125 7.46875 
Q 49.3125 8.734375 54.109375 11.28125 
L 54.109375 2.78125 
Q 49.265625 0.734375 44.1875 -0.34375 
Q 39.109375 -1.421875 33.890625 -1.421875 
Q 20.796875 -1.421875 13.15625 6.1875 
Q 5.515625 13.8125 5.515625 26.8125 
Q 5.515625 40.234375 12.765625 48.109375 
Q 20.015625 56 32.328125 56 
Q 43.359375 56 49.78125 48.890625 
Q 56.203125 41.796875 56.203125 29.59375 
M 47.21875 32.234375 
Q 47.125 39.59375 43.09375 43.984375 
Q 39.0625 48.390625 32.421875 48.390625 
Q 24.90625 48.390625 20.390625 44.140625 
Q 15.875 39.890625 15.1875 32.171875 
z
" id="DejaVuSans-65"/>
      <path d="M 3.328125 72.90625 
L 13.28125 72.90625 
L 28.609375 11.28125 
L 43.890625 72.90625 
L 54.984375 72.90625 
L 70.3125 11.28125 
L 85.59375 72.90625 
L 95.609375 72.90625 
L 77.296875 0 
L 64.890625 0 
L 49.515625 63.28125 
L 33.984375 0 
L 21.578125 0 
z
" id="DejaVuSans-57"/>
      <path d="M 34.28125 27.484375 
Q 23.390625 27.484375 19.1875 25 
Q 14.984375 22.515625 14.984375 16.5 
Q 14.984375 11.71875 18.140625 8.90625 
Q 21.296875 6.109375 26.703125 6.109375 
Q 34.1875 6.109375 38.703125 11.40625 
Q 43.21875 16.703125 43.21875 25.484375 
L 43.21875 27.484375 
z
M 52.203125 31.203125 
L 52.203125 0 
L 43.21875 0 
L 43.21875 8.296875 
Q 40.140625 3.328125 35.546875 0.953125 
Q 30.953125 -1.421875 24.3125 -1.421875 
Q 15.921875 -1.421875 10.953125 3.296875 
Q 6 8.015625 6 15.921875 
Q 6 25.140625 12.171875 29.828125 
Q 18.359375 34.515625 30.609375 34.515625 
L 43.21875 34.515625 
L 43.21875 35.40625 
Q 43.21875 41.609375 39.140625 45 
Q 35.0625 48.390625 27.6875 48.390625 
Q 23 48.390625 18.546875 47.265625 
Q 14.109375 46.140625 10.015625 43.890625 
L 10.015625 52.203125 
Q 14.9375 54.109375 19.578125 55.046875 
Q 24.21875 56 28.609375 56 
Q 40.484375 56 46.34375 49.84375 
Q 52.203125 43.703125 52.203125 31.203125 
" id="DejaVuSans-61"/>
     </defs>
     <g transform="translate(280.002840909 31.10175)scale(0.144 -0.144)">
      <use xlink:href="#DejaVuSans-57"/>
      <use x="98.798828125" xlink:href="#DejaVuSans-65"/>
      <use x="160.322265625" xlink:href="#DejaVuSans-61"/>
      <use x="221.6015625" xlink:href="#DejaVuSans-6e"/>
      <use x="284.98046875" xlink:href="#DejaVuSans-65"/>
      <use x="346.50390625" xlink:href="#DejaVuSans-64"/>
      <use x="409.98046875" xlink:href="#DejaVuSans-2c"/>
      <use x="441.767578125" xlink:href="#DejaVuSans-20"/>
      <use x="473.5546875" xlink:href="#DejaVuSans-64"/>
      <use x="537.03125" xlink:href="#DejaVuSans-4e"/>
      <use x="611.8359375" xlink:href="#DejaVuSans-20"/>
      <use x="643.623046875" xlink:href="#DejaVuSans-28"/>
      <use x="682.63671875" xlink:href="#DejaVuSans-30"/>
      <use x="746.259765625" xlink:href="#DejaVuSans-64"/>
      <use x="809.736328125" xlink:href="#DejaVuSans-29"/>
     </g>
    </g>
    <g id="PathCollection_12">
     <path d="M 254.082841 45.295972 
L 250.920563 51.620528 
L 257.245119 51.620528 
z
" style="fill:#1f77b4;fill-opacity:0.5;stroke:#000000;stroke-opacity:0.5;"/>
     <path d="M 254.082841 45.295972 
L 250.920563 51.620528 
L 257.245119 51.620528 
z
" style="fill:#1f77b4;fill-opacity:0.5;stroke:#000000;stroke-opacity:0.5;"/>
     <path d="M 254.082841 45.295972 
L 250.920563 51.620528 
L 257.245119 51.620528 
z
" style="fill:#1f77b4;fill-opacity:0.5;stroke:#000000;stroke-opacity:0.5;"/>
    </g>
    <g id="text_4">
     <!-- dN (5d) -->
     <g transform="translate(280.002840909 52.23825)scale(0.144 -0.144)">
      <use xlink:href="#DejaVuSans-64"/>
      <use x="63.4765625" xlink:href="#DejaVuSans-4e"/>
      <use x="138.28125" xlink:href="#DejaVuSans-20"/>
      <use x="170.068359375" xlink:href="#DejaVuSans-28"/>
      <use x="209.08203125" xlink:href="#DejaVuSans-35"/>
      <use x="272.705078125" xlink:href="#DejaVuSans-64"/>
      <use x="336.181640625" xlink:href="#DejaVuSans-29"/>
     </g>
    </g>
    <g id="PathCollection_13">
     <path d="M 254.082841 72.757028 
L 257.245119 66.432472 
L 250.920563 66.432472 
z
" style="fill:#1f77b4;fill-opacity:0.5;stroke:#000000;stroke-opacity:0.5;"/>
     <path d="M 254.082841 72.757028 
L 257.245119 66.432472 
L 250.920563 66.432472 
z
" style="fill:#1f77b4;fill-opacity:0.5;stroke:#000000;stroke-opacity:0.5;"/>
     <path d="M 254.082841 72.757028 
L 257.245119 66.432472 
L 250.920563 66.432472 
z
" style="fill:#1f77b4;fill-opacity:0.5;stroke:#000000;stroke-opacity:0.5;"/>
    </g>
    <g id="text_5">
     <!-- dN (8d) -->
     <defs>
      <path d="M 31.78125 34.625 
Q 24.75 34.625 20.71875 30.859375 
Q 16.703125 27.09375 16.703125 20.515625 
Q 16.703125 13.921875 20.71875 10.15625 
Q 24.75 6.390625 31.78125 6.390625 
Q 38.8125 6.390625 42.859375 10.171875 
Q 46.921875 13.96875 46.921875 20.515625 
Q 46.921875 27.09375 42.890625 30.859375 
Q 38.875 34.625 31.78125 34.625 
M 21.921875 38.8125 
Q 15.578125 40.375 12.03125 44.71875 
Q 8.5 49.078125 8.5 55.328125 
Q 8.5 64.0625 14.71875 69.140625 
Q 20.953125 74.21875 31.78125 74.21875 
Q 42.671875 74.21875 48.875 69.140625 
Q 55.078125 64.0625 55.078125 55.328125 
Q 55.078125 49.078125 51.53125 44.71875 
Q 48 40.375 41.703125 38.8125 
Q 48.828125 37.15625 52.796875 32.3125 
Q 56.78125 27.484375 56.78125 20.515625 
Q 56.78125 9.90625 50.3125 4.234375 
Q 43.84375 -1.421875 31.78125 -1.421875 
Q 19.734375 -1.421875 13.25 4.234375 
Q 6.78125 9.90625 6.78125 20.515625 
Q 6.78125 27.484375 10.78125 32.3125 
Q 14.796875 37.15625 21.921875 38.8125 
M 18.3125 54.390625 
Q 18.3125 48.734375 21.84375 45.5625 
Q 25.390625 42.390625 31.78125 42.390625 
Q 38.140625 42.390625 41.71875 45.5625 
Q 45.3125 48.734375 45.3125 54.390625 
Q 45.3125 60.0625 41.71875 63.234375 
Q 38.140625 66.40625 31.78125 66.40625 
Q 25.390625 66.40625 21.84375 63.234375 
Q 18.3125 60.0625 18.3125 54.390625 
" id="DejaVuSans-38"/>
     </defs>
     <g transform="translate(280.002840909 73.37475)scale(0.144 -0.144)">
      <use xlink:href="#DejaVuSans-64"/>
      <use x="63.4765625" xlink:href="#DejaVuSans-4e"/>
      <use x="138.28125" xlink:href="#DejaVuSans-20"/>
      <use x="170.068359375" xlink:href="#DejaVuSans-28"/>
      <use x="209.08203125" xlink:href="#DejaVuSans-38"/>
      <use x="272.705078125" xlink:href="#DejaVuSans-64"/>
      <use x="336.181640625" xlink:href="#DejaVuSans-29"/>
     </g>
    </g>
    <g id="PathCollection_14">
     <path d="M 250.920563 93.893528 
L 257.245119 93.893528 
L 257.245119 87.568972 
L 250.920563 87.568972 
z
" style="fill:#1f77b4;fill-opacity:0.5;stroke:#000000;stroke-opacity:0.5;"/>
     <path d="M 250.920563 93.893528 
L 257.245119 93.893528 
L 257.245119 87.568972 
L 250.920563 87.568972 
z
" style="fill:#1f77b4;fill-opacity:0.5;stroke:#000000;stroke-opacity:0.5;"/>
     <path d="M 250.920563 93.893528 
L 257.245119 93.893528 
L 257.245119 87.568972 
L 250.920563 87.568972 
z
" style="fill:#1f77b4;fill-opacity:0.5;stroke:#000000;stroke-opacity:0.5;"/>
    </g>
    <g id="text_6">
     <!-- dN (12d) -->
     <g transform="translate(280.002840909 94.51125)scale(0.144 -0.144)">
      <use xlink:href="#DejaVuSans-64"/>
      <use x="63.4765625" xlink:href="#DejaVuSans-4e"/>
      <use x="138.28125" xlink:href="#DejaVuSans-20"/>
      <use x="170.068359375" xlink:href="#DejaVuSans-28"/>
      <use x="209.08203125" xlink:href="#DejaVuSans-31"/>
      <use x="272.705078125" xlink:href="#DejaVuSans-32"/>
      <use x="336.328125" xlink:href="#DejaVuSans-64"/>
      <use x="399.8046875" xlink:href="#DejaVuSans-29"/>
     </g>
    </g>
    <g id="PathCollection_15">
     <path d="M 254.082841 116.339886 
L 258.554977 111.86775 
L 254.082841 107.395614 
L 249.610705 111.86775 
z
" style="fill:#1f77b4;fill-opacity:0.5;stroke:#000000;stroke-opacity:0.5;"/>
     <path d="M 254.082841 116.339886 
L 258.554977 111.86775 
L 254.082841 107.395614 
L 249.610705 111.86775 
z
" style="fill:#1f77b4;fill-opacity:0.5;stroke:#000000;stroke-opacity:0.5;"/>
     <path d="M 254.082841 116.339886 
L 258.554977 111.86775 
L 254.082841 107.395614 
L 249.610705 111.86775 
z
" style="fill:#1f77b4;fill-opacity:0.5;stroke:#000000;stroke-opacity:0.5;"/>
    </g>
    <g id="text_7">
     <!-- dN (15d) -->
     <g transform="translate(280.002840909 115.64775)scale(0.144 -0.144)">
      <use xlink:href="#DejaVuSans-64"/>
      <use x="63.4765625" xlink:href="#DejaVuSans-4e"/>
      <use x="138.28125" xlink:href="#DejaVuSans-20"/>
      <use x="170.068359375" xlink:href="#DejaVuSans-28"/>
      <use x="209.08203125" xlink:href="#DejaVuSans-31"/>
      <use x="272.705078125" xlink:href="#DejaVuSans-35"/>
      <use x="336.328125" xlink:href="#DejaVuSans-64"/>
      <use x="399.8046875" xlink:href="#DejaVuSans-29"/>
     </g>
    </g>
    <g id="PathCollection_16">
     <path d="M 254.082841 136.166528 
C 254.921487 136.166528 255.725897 135.83333 256.318909 135.240318 
C 256.911921 134.647306 257.245119 133.842896 257.245119 133.00425 
C 257.245119 132.165604 256.911921 131.361194 256.318909 130.768182 
C 255.725897 130.17517 254.921487 129.841972 254.082841 129.841972 
C 253.244195 129.841972 252.439785 130.17517 251.846773 130.768182 
C 251.253761 131.361194 250.920563 132.165604 250.920563 133.00425 
C 250.920563 133.842896 251.253761 134.647306 251.846773 135.240318 
C 252.439785 135.83333 253.244195 136.166528 254.082841 136.166528 
z
" style="fill:#d62728;fill-opacity:0.5;stroke:#000000;stroke-opacity:0.5;"/>
     <path d="M 254.082841 136.166528 
C 254.921487 136.166528 255.725897 135.83333 256.318909 135.240318 
C 256.911921 134.647306 257.245119 133.842896 257.245119 133.00425 
C 257.245119 132.165604 256.911921 131.361194 256.318909 130.768182 
C 255.725897 130.17517 254.921487 129.841972 254.082841 129.841972 
C 253.244195 129.841972 252.439785 130.17517 251.846773 130.768182 
C 251.253761 131.361194 250.920563 132.165604 250.920563 133.00425 
C 250.920563 133.842896 251.253761 134.647306 251.846773 135.240318 
C 252.439785 135.83333 253.244195 136.166528 254.082841 136.166528 
z
" style="fill:#d62728;fill-opacity:0.5;stroke:#000000;stroke-opacity:0.5;"/>
     <path d="M 254.082841 136.166528 
C 254.921487 136.166528 255.725897 135.83333 256.318909 135.240318 
C 256.911921 134.647306 257.245119 133.842896 257.245119 133.00425 
C 257.245119 132.165604 256.911921 131.361194 256.318909 130.768182 
C 255.725897 130.17517 254.921487 129.841972 254.082841 129.841972 
C 253.244195 129.841972 252.439785 130.17517 251.846773 130.768182 
C 251.253761 131.361194 250.920563 132.165604 250.920563 133.00425 
C 250.920563 133.842896 251.253761 134.647306 251.846773 135.240318 
C 252.439785 135.83333 253.244195 136.166528 254.082841 136.166528 
z
" style="fill:#d62728;fill-opacity:0.5;stroke:#000000;stroke-opacity:0.5;"/>
    </g>
    <g id="text_8">
     <!-- Weaned, dPD (0d) -->
     <defs>
      <path d="M 19.671875 64.796875 
L 19.671875 8.109375 
L 31.59375 8.109375 
Q 46.6875 8.109375 53.6875 14.9375 
Q 60.6875 21.78125 60.6875 36.53125 
Q 60.6875 51.171875 53.6875 57.984375 
Q 46.6875 64.796875 31.59375 64.796875 
z
M 9.8125 72.90625 
L 30.078125 72.90625 
Q 51.265625 72.90625 61.171875 64.09375 
Q 71.09375 55.28125 71.09375 36.53125 
Q 71.09375 17.671875 61.125 8.828125 
Q 51.171875 0 30.078125 0 
L 9.8125 0 
z
" id="DejaVuSans-44"/>
     </defs>
     <g transform="translate(280.002840909 136.78425)scale(0.144 -0.144)">
      <use xlink:href="#DejaVuSans-57"/>
      <use x="98.798828125" xlink:href="#DejaVuSans-65"/>
      <use x="160.322265625" xlink:href="#DejaVuSans-61"/>
      <use x="221.6015625" xlink:href="#DejaVuSans-6e"/>
      <use x="284.98046875" xlink:href="#DejaVuSans-65"/>
      <use x="346.50390625" xlink:href="#DejaVuSans-64"/>
      <use x="409.98046875" xlink:href="#DejaVuSans-2c"/>
      <use x="441.767578125" xlink:href="#DejaVuSans-20"/>
      <use x="473.5546875" xlink:href="#DejaVuSans-64"/>
      <use x="537.03125" xlink:href="#DejaVuSans-50"/>
      <use x="597.333984375" xlink:href="#DejaVuSans-44"/>
      <use x="674.3359375" xlink:href="#DejaVuSans-20"/>
      <use x="706.123046875" xlink:href="#DejaVuSans-28"/>
      <use x="745.13671875" xlink:href="#DejaVuSans-30"/>
      <use x="808.759765625" xlink:href="#DejaVuSans-64"/>
      <use x="872.236328125" xlink:href="#DejaVuSans-29"/>
     </g>
    </g>
    <g id="PathCollection_17">
     <path d="M 254.082841 150.978472 
L 250.920563 157.303028 
L 257.245119 157.303028 
z
" style="fill:#d62728;fill-opacity:0.5;stroke:#000000;stroke-opacity:0.5;"/>
     <path d="M 254.082841 150.978472 
L 250.920563 157.303028 
L 257.245119 157.303028 
z
" style="fill:#d62728;fill-opacity:0.5;stroke:#000000;stroke-opacity:0.5;"/>
     <path d="M 254.082841 150.978472 
L 250.920563 157.303028 
L 257.245119 157.303028 
z
" style="fill:#d62728;fill-opacity:0.5;stroke:#000000;stroke-opacity:0.5;"/>
    </g>
    <g id="text_9">
     <!-- dPD (5d) -->
     <g transform="translate(280.002840909 157.92075)scale(0.144 -0.144)">
      <use xlink:href="#DejaVuSans-64"/>
      <use x="63.4765625" xlink:href="#DejaVuSans-50"/>
      <use x="123.779296875" xlink:href="#DejaVuSans-44"/>
      <use x="200.78125" xlink:href="#DejaVuSans-20"/>
      <use x="232.568359375" xlink:href="#DejaVuSans-28"/>
      <use x="271.58203125" xlink:href="#DejaVuSans-35"/>
      <use x="335.205078125" xlink:href="#DejaVuSans-64"/>
      <use x="398.681640625" xlink:href="#DejaVuSans-29"/>
     </g>
    </g>
    <g id="PathCollection_18">
     <path d="M 254.082841 178.439528 
L 257.245119 172.114972 
L 250.920563 172.114972 
z
" style="fill:#d62728;fill-opacity:0.5;stroke:#000000;stroke-opacity:0.5;"/>
     <path d="M 254.082841 178.439528 
L 257.245119 172.114972 
L 250.920563 172.114972 
z
" style="fill:#d62728;fill-opacity:0.5;stroke:#000000;stroke-opacity:0.5;"/>
     <path d="M 254.082841 178.439528 
L 257.245119 172.114972 
L 250.920563 172.114972 
z
" style="fill:#d62728;fill-opacity:0.5;stroke:#000000;stroke-opacity:0.5;"/>
    </g>
    <g id="text_10">
     <!-- dPD (8d) -->
     <g transform="translate(280.002840909 179.05725)scale(0.144 -0.144)">
      <use xlink:href="#DejaVuSans-64"/>
      <use x="63.4765625" xlink:href="#DejaVuSans-50"/>
      <use x="123.779296875" xlink:href="#DejaVuSans-44"/>
      <use x="200.78125" xlink:href="#DejaVuSans-20"/>
      <use x="232.568359375" xlink:href="#DejaVuSans-28"/>
      <use x="271.58203125" xlink:href="#DejaVuSans-38"/>
      <use x="335.205078125" xlink:href="#DejaVuSans-64"/>
      <use x="398.681640625" xlink:href="#DejaVuSans-29"/>
     </g>
    </g>
    <g id="PathCollection_19">
     <path d="M 250.920563 199.576028 
L 257.245119 199.576028 
L 257.245119 193.251472 
L 250.920563 193.251472 
z
" style="fill:#d62728;fill-opacity:0.5;stroke:#000000;stroke-opacity:0.5;"/>
     <path d="M 250.920563 199.576028 
L 257.245119 199.576028 
L 257.245119 193.251472 
L 250.920563 193.251472 
z
" style="fill:#d62728;fill-opacity:0.5;stroke:#000000;stroke-opacity:0.5;"/>
     <path d="M 250.920563 199.576028 
L 257.245119 199.576028 
L 257.245119 193.251472 
L 250.920563 193.251472 
z
" style="fill:#d62728;fill-opacity:0.5;stroke:#000000;stroke-opacity:0.5;"/>
    </g>
    <g id="text_11">
     <!-- dPD (12d) -->
     <g transform="translate(280.002840909 200.19375)scale(0.144 -0.144)">
      <use xlink:href="#DejaVuSans-64"/>
      <use x="63.4765625" xlink:href="#DejaVuSans-50"/>
      <use x="123.779296875" xlink:href="#DejaVuSans-44"/>
      <use x="200.78125" xlink:href="#DejaVuSans-20"/>
      <use x="232.568359375" xlink:href="#DejaVuSans-28"/>
      <use x="271.58203125" xlink:href="#DejaVuSans-31"/>
      <use x="335.205078125" xlink:href="#DejaVuSans-32"/>
      <use x="398.828125" xlink:href="#DejaVuSans-64"/>
      <use x="462.3046875" xlink:href="#DejaVuSans-29"/>
     </g>
    </g>
    <g id="PathCollection_20">
     <path d="M 254.082841 222.022386 
L 258.554977 217.55025 
L 254.082841 213.078114 
L 249.610705 217.55025 
z
" style="fill:#d62728;fill-opacity:0.5;stroke:#000000;stroke-opacity:0.5;"/>
     <path d="M 254.082841 222.022386 
L 258.554977 217.55025 
L 254.082841 213.078114 
L 249.610705 217.55025 
z
" style="fill:#d62728;fill-opacity:0.5;stroke:#000000;stroke-opacity:0.5;"/>
     <path d="M 254.082841 222.022386 
L 258.554977 217.55025 
L 254.082841 213.078114 
L 249.610705 217.55025 
z
" style="fill:#d62728;fill-opacity:0.5;stroke:#000000;stroke-opacity:0.5;"/>
    </g>
    <g id="text_12">
     <!-- dPD (15d) -->
     <g transform="translate(280.002840909 221.33025)scale(0.144 -0.144)">
      <use xlink:href="#DejaVuSans-64"/>
      <use x="63.4765625" xlink:href="#DejaVuSans-50"/>
      <use x="123.779296875" xlink:href="#DejaVuSans-44"/>
      <use x="200.78125" xlink:href="#DejaVuSans-20"/>
      <use x="232.568359375" xlink:href="#DejaVuSans-28"/>
      <use x="271.58203125" xlink:href="#DejaVuSans-31"/>
      <use x="335.205078125" xlink:href="#DejaVuSans-35"/>
      <use x="398.828125" xlink:href="#DejaVuSans-64"/>
      <use x="462.3046875" xlink:href="#DejaVuSans-29"/>
     </g>
    </g>
   </g>
  </g>
  <g id="axes_2">
   <g id="patch_8">
    <path d="M 23.81375 468 
L 226.722841 468 
L 226.722841 258.545455 
L 23.81375 258.545455 
z
" style="fill:#ffffff;"/>
   </g>
   <g id="PathCollection_21">
    <g clip-path="url(#pa6c34206c9)">
     <use style="fill:#1f77b4;fill-opacity:0.5;stroke:#000000;stroke-opacity:0.5;" x="78.8488089634" xlink:href="#mce1e87a666" y="382.741711732"/>
     <use style="fill:#1f77b4;fill-opacity:0.5;stroke:#000000;stroke-opacity:0.5;" x="190.898380514" xlink:href="#mce1e87a666" y="407.284772771"/>
     <use style="fill:#1f77b4;fill-opacity:0.5;stroke:#000000;stroke-opacity:0.5;" x="188.859694622" xlink:href="#mce1e87a666" y="389.11040626"/>
     <use style="fill:#1f77b4;fill-opacity:0.5;stroke:#000000;stroke-opacity:0.5;" x="202.140166959" xlink:href="#mce1e87a666" y="409.811619561"/>
    </g>
   </g>
   <g id="PathCollection_22">
    <g clip-path="url(#pa6c34206c9)">
     <use style="fill:#1f77b4;fill-opacity:0.5;stroke:#000000;stroke-opacity:0.5;" x="116.000872171" xlink:href="#m8531033064" y="333.43442105"/>
     <use style="fill:#1f77b4;fill-opacity:0.5;stroke:#000000;stroke-opacity:0.5;" x="133.380789777" xlink:href="#m8531033064" y="356.02854151"/>
     <use style="fill:#1f77b4;fill-opacity:0.5;stroke:#000000;stroke-opacity:0.5;" x="108.042102547" xlink:href="#m8531033064" y="356.2995131"/>
     <use style="fill:#1f77b4;fill-opacity:0.5;stroke:#000000;stroke-opacity:0.5;" x="45.5092291156" xlink:href="#m8531033064" y="379.339253725"/>
     <use style="fill:#1f77b4;fill-opacity:0.5;stroke:#000000;stroke-opacity:0.5;" x="53.9357065681" xlink:href="#m8531033064" y="364.27904263"/>
     <use style="fill:#1f77b4;fill-opacity:0.5;stroke:#000000;stroke-opacity:0.5;" x="44.0904116465" xlink:href="#m8531033064" y="363.260454233"/>
     <use style="fill:#1f77b4;fill-opacity:0.5;stroke:#000000;stroke-opacity:0.5;" x="52.8582650783" xlink:href="#m8531033064" y="352.582891148"/>
    </g>
   </g>
   <g id="PathCollection_23">
    <g clip-path="url(#pa6c34206c9)">
     <use style="fill:#1f77b4;fill-opacity:0.5;stroke:#000000;stroke-opacity:0.5;" x="136.293427443" xlink:href="#m2f7dad7f75" y="346.11584441"/>
     <use style="fill:#1f77b4;fill-opacity:0.5;stroke:#000000;stroke-opacity:0.5;" x="50.3798328802" xlink:href="#m2f7dad7f75" y="361.369708556"/>
     <use style="fill:#1f77b4;fill-opacity:0.5;stroke:#000000;stroke-opacity:0.5;" x="43.4686207821" xlink:href="#m2f7dad7f75" y="353.67328512"/>
     <use style="fill:#1f77b4;fill-opacity:0.5;stroke:#000000;stroke-opacity:0.5;" x="49.4386544223" xlink:href="#m2f7dad7f75" y="365.366715124"/>
     <use style="fill:#1f77b4;fill-opacity:0.5;stroke:#000000;stroke-opacity:0.5;" x="52.9143252484" xlink:href="#m2f7dad7f75" y="358.560549853"/>
     <use style="fill:#1f77b4;fill-opacity:0.5;stroke:#000000;stroke-opacity:0.5;" x="146.183636231" xlink:href="#m2f7dad7f75" y="331.975912948"/>
     <use style="fill:#1f77b4;fill-opacity:0.5;stroke:#000000;stroke-opacity:0.5;" x="156.899688448" xlink:href="#m2f7dad7f75" y="331.585943284"/>
    </g>
   </g>
   <g id="PathCollection_24">
    <g clip-path="url(#pa6c34206c9)">
     <use style="fill:#1f77b4;fill-opacity:0.5;stroke:#000000;stroke-opacity:0.5;" x="43.6482238972" xlink:href="#m2b17243e73" y="374.598669137"/>
     <use style="fill:#1f77b4;fill-opacity:0.5;stroke:#000000;stroke-opacity:0.5;" x="42.4673248651" xlink:href="#m2b17243e73" y="371.702429847"/>
     <use style="fill:#1f77b4;fill-opacity:0.5;stroke:#000000;stroke-opacity:0.5;" x="44.7774615239" xlink:href="#m2b17243e73" y="364.0023552"/>
     <use style="fill:#1f77b4;fill-opacity:0.5;stroke:#000000;stroke-opacity:0.5;" x="45.6145953628" xlink:href="#m2b17243e73" y="387.676190557"/>
     <use style="fill:#1f77b4;fill-opacity:0.5;stroke:#000000;stroke-opacity:0.5;" x="158.525492365" xlink:href="#m2b17243e73" y="329.829655226"/>
     <use style="fill:#1f77b4;fill-opacity:0.5;stroke:#000000;stroke-opacity:0.5;" x="166.987616988" xlink:href="#m2b17243e73" y="335.76421049"/>
     <use style="fill:#1f77b4;fill-opacity:0.5;stroke:#000000;stroke-opacity:0.5;" x="171.549044701" xlink:href="#m2b17243e73" y="339.495464483"/>
     <use style="fill:#1f77b4;fill-opacity:0.5;stroke:#000000;stroke-opacity:0.5;" x="175.472558698" xlink:href="#m2b17243e73" y="330.696396393"/>
    </g>
   </g>
   <g id="PathCollection_25">
    <g clip-path="url(#pa6c34206c9)">
     <use style="fill:#1f77b4;fill-opacity:0.5;stroke:#000000;stroke-opacity:0.5;" x="47.8594839047" xlink:href="#mde0509cf8d" y="392.698055494"/>
     <use style="fill:#1f77b4;fill-opacity:0.5;stroke:#000000;stroke-opacity:0.5;" x="43.7690854797" xlink:href="#mde0509cf8d" y="380.22870144"/>
     <use style="fill:#1f77b4;fill-opacity:0.5;stroke:#000000;stroke-opacity:0.5;" x="43.7583813759" xlink:href="#mde0509cf8d" y="382.449004905"/>
     <use style="fill:#1f77b4;fill-opacity:0.5;stroke:#000000;stroke-opacity:0.5;" x="46.1334562891" xlink:href="#mde0509cf8d" y="387.278994292"/>
     <use style="fill:#1f77b4;fill-opacity:0.5;stroke:#000000;stroke-opacity:0.5;" x="183.951384565" xlink:href="#mde0509cf8d" y="370.271137676"/>
     <use style="fill:#1f77b4;fill-opacity:0.5;stroke:#000000;stroke-opacity:0.5;" x="180.865684336" xlink:href="#mde0509cf8d" y="321.353316829"/>
     <use style="fill:#1f77b4;fill-opacity:0.5;stroke:#000000;stroke-opacity:0.5;" x="163.024504836" xlink:href="#mde0509cf8d" y="309.53315698"/>
    </g>
   </g>
   <g id="PathCollection_26">
    <g clip-path="url(#pa6c34206c9)">
     <use style="fill:#d62728;fill-opacity:0.5;stroke:#000000;stroke-opacity:0.5;" x="191.371991089" xlink:href="#m90636d2aff" y="428.948363974"/>
     <use style="fill:#d62728;fill-opacity:0.5;stroke:#000000;stroke-opacity:0.5;" x="172.943014958" xlink:href="#m90636d2aff" y="389.76106176"/>
     <use style="fill:#d62728;fill-opacity:0.5;stroke:#000000;stroke-opacity:0.5;" x="198.995484871" xlink:href="#m90636d2aff" y="427.102502121"/>
     <use style="fill:#d62728;fill-opacity:0.5;stroke:#000000;stroke-opacity:0.5;" x="184.26949373" xlink:href="#m90636d2aff" y="415.115642426"/>
     <use style="fill:#d62728;fill-opacity:0.5;stroke:#000000;stroke-opacity:0.5;" x="187.971097701" xlink:href="#m90636d2aff" y="409.803428282"/>
     <use style="fill:#d62728;fill-opacity:0.5;stroke:#000000;stroke-opacity:0.5;" x="186.211896133" xlink:href="#m90636d2aff" y="399.433917068"/>
     <use style="fill:#d62728;fill-opacity:0.5;stroke:#000000;stroke-opacity:0.5;" x="195.125180862" xlink:href="#m90636d2aff" y="408.079044061"/>
    </g>
   </g>
   <g id="PathCollection_27">
    <g clip-path="url(#pa6c34206c9)">
     <use style="fill:#d62728;fill-opacity:0.5;stroke:#000000;stroke-opacity:0.5;" x="184.962941068" xlink:href="#m7b274d6b15" y="310.797449123"/>
     <use style="fill:#d62728;fill-opacity:0.5;stroke:#000000;stroke-opacity:0.5;" x="180.56318655" xlink:href="#m7b274d6b15" y="311.263073385"/>
     <use style="fill:#d62728;fill-opacity:0.5;stroke:#000000;stroke-opacity:0.5;" x="183.682823934" xlink:href="#m7b274d6b15" y="304.301159668"/>
     <use style="fill:#d62728;fill-opacity:0.5;stroke:#000000;stroke-opacity:0.5;" x="188.763902478" xlink:href="#m7b274d6b15" y="338.449200768"/>
     <use style="fill:#d62728;fill-opacity:0.5;stroke:#000000;stroke-opacity:0.5;" x="174.370947347" xlink:href="#m7b274d6b15" y="305.504484969"/>
     <use style="fill:#d62728;fill-opacity:0.5;stroke:#000000;stroke-opacity:0.5;" x="181.537831839" xlink:href="#m7b274d6b15" y="313.996935761"/>
     <use style="fill:#d62728;fill-opacity:0.5;stroke:#000000;stroke-opacity:0.5;" x="178.894546495" xlink:href="#m7b274d6b15" y="320.145390371"/>
     <use style="fill:#d62728;fill-opacity:0.5;stroke:#000000;stroke-opacity:0.5;" x="181.911338513" xlink:href="#m7b274d6b15" y="309.656832663"/>
    </g>
   </g>
   <g id="PathCollection_28">
    <g clip-path="url(#pa6c34206c9)">
     <use style="fill:#d62728;fill-opacity:0.5;stroke:#000000;stroke-opacity:0.5;" x="172.493063866" xlink:href="#m4ac8fe62c2" y="312.249581533"/>
     <use style="fill:#d62728;fill-opacity:0.5;stroke:#000000;stroke-opacity:0.5;" x="162.472062151" xlink:href="#m4ac8fe62c2" y="323.949015657"/>
     <use style="fill:#d62728;fill-opacity:0.5;stroke:#000000;stroke-opacity:0.5;" x="163.446887359" xlink:href="#m4ac8fe62c2" y="321.387982429"/>
     <use style="fill:#d62728;fill-opacity:0.5;stroke:#000000;stroke-opacity:0.5;" x="118.956038811" xlink:href="#m4ac8fe62c2" y="347.925299398"/>
     <use style="fill:#d62728;fill-opacity:0.5;stroke:#000000;stroke-opacity:0.5;" x="171.425477001" xlink:href="#m4ac8fe62c2" y="333.533904489"/>
     <use style="fill:#d62728;fill-opacity:0.5;stroke:#000000;stroke-opacity:0.5;" x="182.217893466" xlink:href="#m4ac8fe62c2" y="325.410579386"/>
    </g>
   </g>
   <g id="PathCollection_29">
    <g clip-path="url(#pa6c34206c9)">
     <use style="fill:#d62728;fill-opacity:0.5;stroke:#000000;stroke-opacity:0.5;" x="170.507396558" xlink:href="#m9f735e40ff" y="369.040789841"/>
     <use style="fill:#d62728;fill-opacity:0.5;stroke:#000000;stroke-opacity:0.5;" x="168.757464263" xlink:href="#m9f735e40ff" y="343.311037789"/>
     <use style="fill:#d62728;fill-opacity:0.5;stroke:#000000;stroke-opacity:0.5;" x="176.604287825" xlink:href="#m9f735e40ff" y="380.201148183"/>
     <use style="fill:#d62728;fill-opacity:0.5;stroke:#000000;stroke-opacity:0.5;" x="167.091175112" xlink:href="#m9f735e40ff" y="365.196118726"/>
     <use style="fill:#d62728;fill-opacity:0.5;stroke:#000000;stroke-opacity:0.5;" x="173.551050737" xlink:href="#m9f735e40ff" y="367.423458013"/>
     <use style="fill:#d62728;fill-opacity:0.5;stroke:#000000;stroke-opacity:0.5;" x="178.779047211" xlink:href="#m9f735e40ff" y="363.095120221"/>
     <use style="fill:#d62728;fill-opacity:0.5;stroke:#000000;stroke-opacity:0.5;" x="167.490016813" xlink:href="#m9f735e40ff" y="348.433501999"/>
     <use style="fill:#d62728;fill-opacity:0.5;stroke:#000000;stroke-opacity:0.5;" x="169.037881562" xlink:href="#m9f735e40ff" y="373.891611892"/>
    </g>
   </g>
   <g id="PathCollection_30">
    <g clip-path="url(#pa6c34206c9)">
     <use style="fill:#d62728;fill-opacity:0.5;stroke:#000000;stroke-opacity:0.5;" x="174.050023143" xlink:href="#m8602cf3905" y="348.621421719"/>
     <use style="fill:#d62728;fill-opacity:0.5;stroke:#000000;stroke-opacity:0.5;" x="165.309476466" xlink:href="#m8602cf3905" y="392.396130641"/>
     <use style="fill:#d62728;fill-opacity:0.5;stroke:#000000;stroke-opacity:0.5;" x="166.422564193" xlink:href="#m8602cf3905" y="352.121062726"/>
     <use style="fill:#d62728;fill-opacity:0.5;stroke:#000000;stroke-opacity:0.5;" x="180.46392882" xlink:href="#m8602cf3905" y="367.465441117"/>
     <use style="fill:#d62728;fill-opacity:0.5;stroke:#000000;stroke-opacity:0.5;" x="161.102749589" xlink:href="#m8602cf3905" y="358.973177751"/>
     <use style="fill:#d62728;fill-opacity:0.5;stroke:#000000;stroke-opacity:0.5;" x="164.483233001" xlink:href="#m8602cf3905" y="364.820224582"/>
     <use style="fill:#d62728;fill-opacity:0.5;stroke:#000000;stroke-opacity:0.5;" x="175.629102696" xlink:href="#m8602cf3905" y="378.451704436"/>
    </g>
   </g>
   <g id="patch_9">
    <path d="M 23.81375 258.545455 
L 226.722841 258.545455 
" style="fill:none;stroke:#000000;stroke-linecap:square;stroke-linejoin:miter;"/>
   </g>
   <g id="patch_10">
    <path d="M 226.722841 468 
L 226.722841 258.545455 
" style="fill:none;stroke:#000000;stroke-linecap:square;stroke-linejoin:miter;"/>
   </g>
   <g id="patch_11">
    <path d="M 23.81375 468 
L 226.722841 468 
" style="fill:none;stroke:#000000;stroke-linecap:square;stroke-linejoin:miter;"/>
   </g>
   <g id="patch_12">
    <path d="M 23.81375 468 
L 23.81375 258.545455 
" style="fill:none;stroke:#000000;stroke-linecap:square;stroke-linejoin:miter;"/>
   </g>
   <g id="matplotlib.axis_3">
    <g id="text_13">
     <!-- PC1 (59.79%) -->
     <g transform="translate(84.1767329545 482.118125)scale(0.12 -0.12)">
      <use xlink:href="#DejaVuSans-50"/>
      <use x="60.302734375" xlink:href="#DejaVuSans-43"/>
      <use x="130.126953125" xlink:href="#DejaVuSans-31"/>
      <use x="193.75" xlink:href="#DejaVuSans-20"/>
      <use x="225.537109375" xlink:href="#DejaVuSans-28"/>
      <use x="264.55078125" xlink:href="#DejaVuSans-35"/>
      <use x="328.173828125" xlink:href="#DejaVuSans-39"/>
      <use x="391.796875" xlink:href="#DejaVuSans-2e"/>
      <use x="423.583984375" xlink:href="#DejaVuSans-37"/>
      <use x="487.20703125" xlink:href="#DejaVuSans-39"/>
      <use x="550.830078125" xlink:href="#DejaVuSans-25"/>
      <use x="645.849609375" xlink:href="#DejaVuSans-29"/>
     </g>
    </g>
   </g>
   <g id="matplotlib.axis_4">
    <g id="text_14">
     <!-- PC3 (7.28%) -->
     <g transform="translate(16.318125 400.546789773)rotate(-90.0)scale(0.12 -0.12)">
      <use xlink:href="#DejaVuSans-50"/>
      <use x="60.302734375" xlink:href="#DejaVuSans-43"/>
      <use x="130.126953125" xlink:href="#DejaVuSans-33"/>
      <use x="193.75" xlink:href="#DejaVuSans-20"/>
      <use x="225.537109375" xlink:href="#DejaVuSans-28"/>
      <use x="264.55078125" xlink:href="#DejaVuSans-37"/>
      <use x="328.173828125" xlink:href="#DejaVuSans-2e"/>
      <use x="359.9609375" xlink:href="#DejaVuSans-32"/>
      <use x="423.583984375" xlink:href="#DejaVuSans-38"/>
      <use x="487.20703125" xlink:href="#DejaVuSans-25"/>
      <use x="582.2265625" xlink:href="#DejaVuSans-29"/>
     </g>
    </g>
   </g>
  </g>
  <g id="axes_3">
   <g id="patch_13">
    <path d="M 267.304659 468 
L 470.21375 468 
L 470.21375 258.545455 
L 267.304659 258.545455 
z
" style="fill:#ffffff;"/>
   </g>
   <g id="PathCollection_31">
    <g clip-path="url(#pf315915aa7)">
     <use style="fill:#1f77b4;fill-opacity:0.5;stroke:#000000;stroke-opacity:0.5;" x="414.950727279" xlink:href="#mce1e87a666" y="382.741711732"/>
     <use style="fill:#1f77b4;fill-opacity:0.5;stroke:#000000;stroke-opacity:0.5;" x="407.254188903" xlink:href="#mce1e87a666" y="407.284772771"/>
     <use style="fill:#1f77b4;fill-opacity:0.5;stroke:#000000;stroke-opacity:0.5;" x="404.079018222" xlink:href="#mce1e87a666" y="389.11040626"/>
     <use style="fill:#1f77b4;fill-opacity:0.5;stroke:#000000;stroke-opacity:0.5;" x="407.352258904" xlink:href="#mce1e87a666" y="409.811619561"/>
    </g>
   </g>
   <g id="PathCollection_32">
    <g clip-path="url(#pf315915aa7)">
     <use style="fill:#1f77b4;fill-opacity:0.5;stroke:#000000;stroke-opacity:0.5;" x="403.286415969" xlink:href="#m8531033064" y="333.43442105"/>
     <use style="fill:#1f77b4;fill-opacity:0.5;stroke:#000000;stroke-opacity:0.5;" x="398.766061885" xlink:href="#m8531033064" y="356.02854151"/>
     <use style="fill:#1f77b4;fill-opacity:0.5;stroke:#000000;stroke-opacity:0.5;" x="405.040933503" xlink:href="#m8531033064" y="356.2995131"/>
     <use style="fill:#1f77b4;fill-opacity:0.5;stroke:#000000;stroke-opacity:0.5;" x="426.531564751" xlink:href="#m8531033064" y="379.339253725"/>
     <use style="fill:#1f77b4;fill-opacity:0.5;stroke:#000000;stroke-opacity:0.5;" x="415.764755109" xlink:href="#m8531033064" y="364.27904263"/>
     <use style="fill:#1f77b4;fill-opacity:0.5;stroke:#000000;stroke-opacity:0.5;" x="421.574513719" xlink:href="#m8531033064" y="363.260454233"/>
     <use style="fill:#1f77b4;fill-opacity:0.5;stroke:#000000;stroke-opacity:0.5;" x="423.024442164" xlink:href="#m8531033064" y="352.582891148"/>
    </g>
   </g>
   <g id="PathCollection_33">
    <g clip-path="url(#pf315915aa7)">
     <use style="fill:#1f77b4;fill-opacity:0.5;stroke:#000000;stroke-opacity:0.5;" x="401.085266328" xlink:href="#m2f7dad7f75" y="346.11584441"/>
     <use style="fill:#1f77b4;fill-opacity:0.5;stroke:#000000;stroke-opacity:0.5;" x="418.06253081" xlink:href="#m2f7dad7f75" y="361.369708556"/>
     <use style="fill:#1f77b4;fill-opacity:0.5;stroke:#000000;stroke-opacity:0.5;" x="426.10289235" xlink:href="#m2f7dad7f75" y="353.67328512"/>
     <use style="fill:#1f77b4;fill-opacity:0.5;stroke:#000000;stroke-opacity:0.5;" x="417.205463973" xlink:href="#m2f7dad7f75" y="365.366715124"/>
     <use style="fill:#1f77b4;fill-opacity:0.5;stroke:#000000;stroke-opacity:0.5;" x="419.852559219" xlink:href="#m2f7dad7f75" y="358.560549853"/>
     <use style="fill:#1f77b4;fill-opacity:0.5;stroke:#000000;stroke-opacity:0.5;" x="402.546906949" xlink:href="#m2f7dad7f75" y="331.975912948"/>
     <use style="fill:#1f77b4;fill-opacity:0.5;stroke:#000000;stroke-opacity:0.5;" x="402.249152914" xlink:href="#m2f7dad7f75" y="331.585943284"/>
    </g>
   </g>
   <g id="PathCollection_34">
    <g clip-path="url(#pf315915aa7)">
     <use style="fill:#1f77b4;fill-opacity:0.5;stroke:#000000;stroke-opacity:0.5;" x="365.076768646" xlink:href="#m2b17243e73" y="374.598669137"/>
     <use style="fill:#1f77b4;fill-opacity:0.5;stroke:#000000;stroke-opacity:0.5;" x="372.127645506" xlink:href="#m2b17243e73" y="371.702429847"/>
     <use style="fill:#1f77b4;fill-opacity:0.5;stroke:#000000;stroke-opacity:0.5;" x="378.179421905" xlink:href="#m2b17243e73" y="364.0023552"/>
     <use style="fill:#1f77b4;fill-opacity:0.5;stroke:#000000;stroke-opacity:0.5;" x="350.459608911" xlink:href="#m2b17243e73" y="387.676190557"/>
     <use style="fill:#1f77b4;fill-opacity:0.5;stroke:#000000;stroke-opacity:0.5;" x="400.768472684" xlink:href="#m2b17243e73" y="329.829655226"/>
     <use style="fill:#1f77b4;fill-opacity:0.5;stroke:#000000;stroke-opacity:0.5;" x="400.390946462" xlink:href="#m2b17243e73" y="335.76421049"/>
     <use style="fill:#1f77b4;fill-opacity:0.5;stroke:#000000;stroke-opacity:0.5;" x="400.117837521" xlink:href="#m2b17243e73" y="339.495464483"/>
     <use style="fill:#1f77b4;fill-opacity:0.5;stroke:#000000;stroke-opacity:0.5;" x="399.862094941" xlink:href="#m2b17243e73" y="330.696396393"/>
    </g>
   </g>
   <g id="PathCollection_35">
    <g clip-path="url(#pf315915aa7)">
     <use style="fill:#1f77b4;fill-opacity:0.5;stroke:#000000;stroke-opacity:0.5;" x="347.441557355" xlink:href="#mde0509cf8d" y="392.698055494"/>
     <use style="fill:#1f77b4;fill-opacity:0.5;stroke:#000000;stroke-opacity:0.5;" x="358.387771343" xlink:href="#mde0509cf8d" y="380.22870144"/>
     <use style="fill:#1f77b4;fill-opacity:0.5;stroke:#000000;stroke-opacity:0.5;" x="350.735318051" xlink:href="#mde0509cf8d" y="382.449004905"/>
     <use style="fill:#1f77b4;fill-opacity:0.5;stroke:#000000;stroke-opacity:0.5;" x="350.040839489" xlink:href="#mde0509cf8d" y="387.278994292"/>
     <use style="fill:#1f77b4;fill-opacity:0.5;stroke:#000000;stroke-opacity:0.5;" x="404.046567641" xlink:href="#mde0509cf8d" y="370.271137676"/>
     <use style="fill:#1f77b4;fill-opacity:0.5;stroke:#000000;stroke-opacity:0.5;" x="401.916826133" xlink:href="#mde0509cf8d" y="321.353316829"/>
     <use style="fill:#1f77b4;fill-opacity:0.5;stroke:#000000;stroke-opacity:0.5;" x="401.603245736" xlink:href="#mde0509cf8d" y="309.53315698"/>
    </g>
   </g>
   <g id="PathCollection_36">
    <g clip-path="url(#pf315915aa7)">
     <use style="fill:#d62728;fill-opacity:0.5;stroke:#000000;stroke-opacity:0.5;" x="413.305999168" xlink:href="#m90636d2aff" y="428.948363974"/>
     <use style="fill:#d62728;fill-opacity:0.5;stroke:#000000;stroke-opacity:0.5;" x="402.50826129" xlink:href="#m90636d2aff" y="389.76106176"/>
     <use style="fill:#d62728;fill-opacity:0.5;stroke:#000000;stroke-opacity:0.5;" x="408.247437587" xlink:href="#m90636d2aff" y="427.102502121"/>
     <use style="fill:#d62728;fill-opacity:0.5;stroke:#000000;stroke-opacity:0.5;" x="408.516722138" xlink:href="#m90636d2aff" y="415.115642426"/>
     <use style="fill:#d62728;fill-opacity:0.5;stroke:#000000;stroke-opacity:0.5;" x="406.069157931" xlink:href="#m90636d2aff" y="409.803428282"/>
     <use style="fill:#d62728;fill-opacity:0.5;stroke:#000000;stroke-opacity:0.5;" x="403.186971259" xlink:href="#m90636d2aff" y="399.433917068"/>
     <use style="fill:#d62728;fill-opacity:0.5;stroke:#000000;stroke-opacity:0.5;" x="407.193448006" xlink:href="#m90636d2aff" y="408.079044061"/>
    </g>
   </g>
   <g id="PathCollection_37">
    <g clip-path="url(#pf315915aa7)">
     <use style="fill:#d62728;fill-opacity:0.5;stroke:#000000;stroke-opacity:0.5;" x="397.748976557" xlink:href="#m7b274d6b15" y="310.797449123"/>
     <use style="fill:#d62728;fill-opacity:0.5;stroke:#000000;stroke-opacity:0.5;" x="396.543946764" xlink:href="#m7b274d6b15" y="311.263073385"/>
     <use style="fill:#d62728;fill-opacity:0.5;stroke:#000000;stroke-opacity:0.5;" x="397.565328003" xlink:href="#m7b274d6b15" y="304.301159668"/>
     <use style="fill:#d62728;fill-opacity:0.5;stroke:#000000;stroke-opacity:0.5;" x="394.459916027" xlink:href="#m7b274d6b15" y="338.449200768"/>
     <use style="fill:#d62728;fill-opacity:0.5;stroke:#000000;stroke-opacity:0.5;" x="396.423750825" xlink:href="#m7b274d6b15" y="305.504484969"/>
     <use style="fill:#d62728;fill-opacity:0.5;stroke:#000000;stroke-opacity:0.5;" x="395.199987166" xlink:href="#m7b274d6b15" y="313.996935761"/>
     <use style="fill:#d62728;fill-opacity:0.5;stroke:#000000;stroke-opacity:0.5;" x="394.485321869" xlink:href="#m7b274d6b15" y="320.145390371"/>
     <use style="fill:#d62728;fill-opacity:0.5;stroke:#000000;stroke-opacity:0.5;" x="395.83614367" xlink:href="#m7b274d6b15" y="309.656832663"/>
    </g>
   </g>
   <g id="PathCollection_38">
    <g clip-path="url(#pf315915aa7)">
     <use style="fill:#d62728;fill-opacity:0.5;stroke:#000000;stroke-opacity:0.5;" x="392.989652866" xlink:href="#m4ac8fe62c2" y="312.249581533"/>
     <use style="fill:#d62728;fill-opacity:0.5;stroke:#000000;stroke-opacity:0.5;" x="396.333468758" xlink:href="#m4ac8fe62c2" y="323.949015657"/>
     <use style="fill:#d62728;fill-opacity:0.5;stroke:#000000;stroke-opacity:0.5;" x="396.082275562" xlink:href="#m4ac8fe62c2" y="321.387982429"/>
     <use style="fill:#d62728;fill-opacity:0.5;stroke:#000000;stroke-opacity:0.5;" x="400.648853554" xlink:href="#m4ac8fe62c2" y="347.925299398"/>
     <use style="fill:#d62728;fill-opacity:0.5;stroke:#000000;stroke-opacity:0.5;" x="394.853922911" xlink:href="#m4ac8fe62c2" y="333.533904489"/>
     <use style="fill:#d62728;fill-opacity:0.5;stroke:#000000;stroke-opacity:0.5;" x="394.409034909" xlink:href="#m4ac8fe62c2" y="325.410579386"/>
    </g>
   </g>
   <g id="PathCollection_39">
    <g clip-path="url(#pf315915aa7)">
     <use style="fill:#d62728;fill-opacity:0.5;stroke:#000000;stroke-opacity:0.5;" x="351.224590915" xlink:href="#m9f735e40ff" y="369.040789841"/>
     <use style="fill:#d62728;fill-opacity:0.5;stroke:#000000;stroke-opacity:0.5;" x="360.474313871" xlink:href="#m9f735e40ff" y="343.311037789"/>
     <use style="fill:#d62728;fill-opacity:0.5;stroke:#000000;stroke-opacity:0.5;" x="349.925360638" xlink:href="#m9f735e40ff" y="380.201148183"/>
     <use style="fill:#d62728;fill-opacity:0.5;stroke:#000000;stroke-opacity:0.5;" x="348.280108412" xlink:href="#m9f735e40ff" y="365.196118726"/>
     <use style="fill:#d62728;fill-opacity:0.5;stroke:#000000;stroke-opacity:0.5;" x="344.541204678" xlink:href="#m9f735e40ff" y="367.423458013"/>
     <use style="fill:#d62728;fill-opacity:0.5;stroke:#000000;stroke-opacity:0.5;" x="348.41990117" xlink:href="#m9f735e40ff" y="363.095120221"/>
     <use style="fill:#d62728;fill-opacity:0.5;stroke:#000000;stroke-opacity:0.5;" x="349.795176032" xlink:href="#m9f735e40ff" y="348.433501999"/>
     <use style="fill:#d62728;fill-opacity:0.5;stroke:#000000;stroke-opacity:0.5;" x="354.070470862" xlink:href="#m9f735e40ff" y="373.891611892"/>
    </g>
   </g>
   <g id="PathCollection_40">
    <g clip-path="url(#pf315915aa7)">
     <use style="fill:#d62728;fill-opacity:0.5;stroke:#000000;stroke-opacity:0.5;" x="346.571752718" xlink:href="#m8602cf3905" y="348.621421719"/>
     <use style="fill:#d62728;fill-opacity:0.5;stroke:#000000;stroke-opacity:0.5;" x="341.011459837" xlink:href="#m8602cf3905" y="392.396130641"/>
     <use style="fill:#d62728;fill-opacity:0.5;stroke:#000000;stroke-opacity:0.5;" x="346.842064211" xlink:href="#m8602cf3905" y="352.121062726"/>
     <use style="fill:#d62728;fill-opacity:0.5;stroke:#000000;stroke-opacity:0.5;" x="342.280467921" xlink:href="#m8602cf3905" y="367.465441117"/>
     <use style="fill:#d62728;fill-opacity:0.5;stroke:#000000;stroke-opacity:0.5;" x="343.060388153" xlink:href="#m8602cf3905" y="358.973177751"/>
     <use style="fill:#d62728;fill-opacity:0.5;stroke:#000000;stroke-opacity:0.5;" x="351.643915193" xlink:href="#m8602cf3905" y="364.820224582"/>
     <use style="fill:#d62728;fill-opacity:0.5;stroke:#000000;stroke-opacity:0.5;" x="352.902467067" xlink:href="#m8602cf3905" y="378.451704436"/>
    </g>
   </g>
   <g id="patch_14">
    <path d="M 267.304659 258.545455 
L 470.21375 258.545455 
" style="fill:none;stroke:#000000;stroke-linecap:square;stroke-linejoin:miter;"/>
   </g>
   <g id="patch_15">
    <path d="M 470.21375 468 
L 470.21375 258.545455 
" style="fill:none;stroke:#000000;stroke-linecap:square;stroke-linejoin:miter;"/>
   </g>
   <g id="patch_16">
    <path d="M 267.304659 468 
L 470.21375 468 
" style="fill:none;stroke:#000000;stroke-linecap:square;stroke-linejoin:miter;"/>
   </g>
   <g id="patch_17">
    <path d="M 267.304659 468 
L 267.304659 258.545455 
" style="fill:none;stroke:#000000;stroke-linecap:square;stroke-linejoin:miter;"/>
   </g>
   <g id="matplotlib.axis_5">
    <g id="text_15">
     <!-- PC2 (13.06%) -->
     <g transform="translate(327.667642045 482.118125)scale(0.12 -0.12)">
      <use xlink:href="#DejaVuSans-50"/>
      <use x="60.302734375" xlink:href="#DejaVuSans-43"/>
      <use x="130.126953125" xlink:href="#DejaVuSans-32"/>
      <use x="193.75" xlink:href="#DejaVuSans-20"/>
      <use x="225.537109375" xlink:href="#DejaVuSans-28"/>
      <use x="264.55078125" xlink:href="#DejaVuSans-31"/>
      <use x="328.173828125" xlink:href="#DejaVuSans-33"/>
      <use x="391.796875" xlink:href="#DejaVuSans-2e"/>
      <use x="423.583984375" xlink:href="#DejaVuSans-30"/>
      <use x="487.20703125" xlink:href="#DejaVuSans-36"/>
      <use x="550.830078125" xlink:href="#DejaVuSans-25"/>
      <use x="645.849609375" xlink:href="#DejaVuSans-29"/>
     </g>
    </g>
   </g>
   <g id="matplotlib.axis_6">
    <g id="text_16">
     <!-- PC3 (7.28%) -->
     <g transform="translate(259.809034091 400.546789773)rotate(-90.0)scale(0.12 -0.12)">
      <use xlink:href="#DejaVuSans-50"/>
      <use x="60.302734375" xlink:href="#DejaVuSans-43"/>
      <use x="130.126953125" xlink:href="#DejaVuSans-33"/>
      <use x="193.75" xlink:href="#DejaVuSans-20"/>
      <use x="225.537109375" xlink:href="#DejaVuSans-28"/>
      <use x="264.55078125" xlink:href="#DejaVuSans-37"/>
      <use x="328.173828125" xlink:href="#DejaVuSans-2e"/>
      <use x="359.9609375" xlink:href="#DejaVuSans-32"/>
      <use x="423.583984375" xlink:href="#DejaVuSans-38"/>
      <use x="487.20703125" xlink:href="#DejaVuSans-25"/>
      <use x="582.2265625" xlink:href="#DejaVuSans-29"/>
     </g>
    </g>
   </g>
  </g>
 </g>
 <defs>
  <clipPath id="pf315915aa7">
   <rect height="209.454545455" width="202.909090909" x="267.304659091" y="258.545454545"/>
  </clipPath>
  <clipPath id="pa6c34206c9">
   <rect height="209.454545455" width="202.909090909" x="23.81375" y="258.545454545"/>
  </clipPath>
  <clipPath id="paaab7e44d3">
   <rect height="209.454545455" width="202.909090909" x="23.81375" y="7.2"/>
  </clipPath>
 </defs>
</svg>
